<svg xmlns="http://www.w3.org/2000/svg" width="32" height="32" viewBox="0 0 32 32">
    <defs>
        <style>
            .cls-2{fill:#fff}
        </style>
    </defs>
    <g id="Group_41" transform="translate(-124 -149)">
        <circle id="Ellipse_13" cx="16" cy="16" r="16" fill="#2b4077" transform="translate(124 149)"/>
        <g id="atomic" transform="translate(132.044 154.805)">
            <g id="Group_7" transform="translate(7.48 9.641)">
                <g id="Group_6">
                    <path id="Path_12" d="M204.463 201.258a.969.969 0 1 0 .969.969.97.97 0 0 0-.969-.969zm0 1.571a.6.6 0 1 1 .6-.6.6.6 0 0 1-.6.6z" class="cls-2" transform="translate(-203.494 -201.258)"/>
                </g>
            </g>
            <g id="Group_9" transform="translate(0 2.239)">
                <g id="Group_8">
                    <path id="Path_13" d="M15.858 6.972a3.923 3.923 0 0 0-.5-2.772A1.391 1.391 0 0 0 14.1 2.239a1.376 1.376 0 0 0-1.2.706 8.585 8.585 0 0 0-4.528 1.374C5.564 2.682 3.021 2.485 1.7 3.816a3.307 3.307 0 0 0-.866 2.406 1.392 1.392 0 0 0 .544 2.666H1.4a12.441 12.441 0 0 0 .8 1.657c-1.623 2.833-1.818 5.4-.5 6.728a3.237 3.237 0 0 0 2.378.877 8.87 8.87 0 0 0 4.291-1.38 8.869 8.869 0 0 0 4.291 1.38 3.239 3.239 0 0 0 2.378-.877c1.319-1.331 1.124-3.9-.5-6.729a10.136 10.136 0 0 0 1.32-3.572zM14.1 3.021a.608.608 0 1 1-.6.608.606.606 0 0 1 .6-.608zm-1.374.7a1.384 1.384 0 0 0 1.374 1.3 1.36 1.36 0 0 0 .72-.206 3.349 3.349 0 0 1 .268 2.054 8.946 8.946 0 0 1-1.015 2.916 17.546 17.546 0 0 0-2.232-2.741A17.47 17.47 0 0 0 9.126 4.79a7.642 7.642 0 0 1 3.602-1.069zM1.378 8.106a.608.608 0 1 1 .6-.608.606.606 0 0 1-.6.608zm.766.547a1.393 1.393 0 0 0-.534-2.524 2.5 2.5 0 0 1 .641-1.759c.991-1 3.058-.824 5.367.422a18.109 18.109 0 0 0-4.95 4.991 11.278 11.278 0 0 1-.524-1.13zm.106 8.067c-.991-1-.817-3.085.418-5.414A17.558 17.558 0 0 0 4.9 14.047 17.471 17.471 0 0 0 7.617 16.3c-2.308 1.244-4.376 1.42-5.367.42zm3.2-3.226a16.551 16.551 0 0 1-2.35-2.949 17.2 17.2 0 0 1 5.272-5.314A16.458 16.458 0 0 1 11.3 7.6a16.533 16.533 0 0 1 2.343 2.95A16.532 16.532 0 0 1 11.3 13.5a16.457 16.457 0 0 1-2.924 2.364 16.456 16.456 0 0 1-2.928-2.37zm9.045 3.226c-.991 1-3.059.824-5.367-.421a17.468 17.468 0 0 0 2.717-2.252 17.543 17.543 0 0 0 2.232-2.741c1.233 2.329 1.408 4.414.417 5.414z" class="cls-2" transform="translate(0 -2.239)"/>
                </g>
            </g>
        </g>
    </g>
</svg>
