<svg xmlns="http://www.w3.org/2000/svg" id="fi-rr-settings" width="16.415" height="18.244" viewBox="0 0 16.415 18.244">
    <defs>
        <style>
            .cls-1{fill:#fff}
        </style>
    </defs>
    <path id="Path_50" d="M11.041 8a3.041 3.041 0 1 0 3.041 3.041A3.041 3.041 0 0 0 11.041 8zm0 4.561a1.52 1.52 0 1 1 1.52-1.52 1.52 1.52 0 0 1-1.52 1.52z" class="cls-1" transform="translate(-2.833 -1.919)"/>
    <path id="Path_51" d="M16.475 10.566l-.338-.195a6.918 6.918 0 0 0 0-2.5l.338-.195a2.282 2.282 0 1 0-2.28-3.953l-.338.2a6.824 6.824 0 0 0-2.166-1.253v-.39a2.28 2.28 0 0 0-4.561 0v.39a6.824 6.824 0 0 0-2.165 1.252l-.34-.2a2.282 2.282 0 1 0-2.28 3.953l.338.195a6.917 6.917 0 0 0 0 2.5l-.338.195a2.282 2.282 0 1 0 2.28 3.953l.338-.2a6.824 6.824 0 0 0 2.167 1.255v.39a2.28 2.28 0 0 0 4.561 0v-.39a6.824 6.824 0 0 0 2.165-1.251l.34.2a2.282 2.282 0 1 0 2.28-3.953zM14.539 7.7a5.358 5.358 0 0 1 0 2.851.76.76 0 0 0 .353.861l.824.476a.76.76 0 1 1-.76 1.317l-.826-.477a.76.76 0 0 0-.924.125 5.309 5.309 0 0 1-2.465 1.425.76.76 0 0 0-.571.737v.952a.76.76 0 0 1-1.52 0v-.952a.76.76 0 0 0-.571-.737 5.309 5.309 0 0 1-2.464-1.428.76.76 0 0 0-.924-.125l-.824.477a.76.76 0 1 1-.76-1.317l.824-.476a.76.76 0 0 0 .353-.861 5.358 5.358 0 0 1 0-2.851.76.76 0 0 0-.353-.858l-.825-.479a.76.76 0 0 1 .76-1.317l.826.477a.76.76 0 0 0 .922-.12 5.309 5.309 0 0 1 2.465-1.428.76.76 0 0 0 .571-.74V2.28a.76.76 0 1 1 1.52 0v.952a.76.76 0 0 0 .571.737A5.309 5.309 0 0 1 13.207 5.4a.76.76 0 0 0 .924.125l.824-.477a.76.76 0 1 1 .76 1.317l-.824.476a.76.76 0 0 0-.352.858z" class="cls-1" transform="translate(-1.203)"/>
</svg>
