<svg xmlns="http://www.w3.org/2000/svg" width="17.479" height="20.764" viewBox="0 0 17.479 20.764">
    <path fill="#261462" d="M10.99 20.764H3.244A3.248 3.248 0 0 1 0 17.52V6.529a3.248 3.248 0 0 1 3.244-3.244h7.746a3.248 3.248 0 0 1 3.244 3.244V17.52a3.248 3.248 0 0 1-3.244 3.244zM3.244 4.907a1.624 1.624 0 0 0-1.622 1.622V17.52a1.624 1.624 0 0 0 1.622 1.622h7.746a1.624 1.624 0 0 0 1.622-1.622V6.529a1.624 1.624 0 0 0-1.622-1.622zm14.235 10.585V3.244A3.248 3.248 0 0 0 14.235 0h-9a.811.811 0 1 0 0 1.622h9a1.624 1.624 0 0 1 1.622 1.622v12.248a.811.811 0 1 0 1.622 0zm0 0"/>
</svg>
