<svg xmlns="http://www.w3.org/2000/svg" width="18.214" height="18.244" viewBox="0 0 18.214 18.244">
    <path fill="#fff" d="M15.857 11.654l-2.867 4.679a3.979 3.979 0 0 1-2.942 1.883 4.04 4.04 0 0 1-.477.028 3.962 3.962 0 0 1-2.28-.726 3.6 3.6 0 0 1-5.085-4.991l-1-1A4 4 0 0 1 1.932 5.3l4.384-2.716a6.734 6.734 0 0 1 7.85.416l1.261-1.261A.76.76 0 1 1 16.5 2.817l-1.26 1.26a6.8 6.8 0 0 1 .615 7.577zm-9.726 4.8L3.3 13.627a2.068 2.068 0 0 0 .352 2.481 2.149 2.149 0 0 0 2.48.347zM13.673 4.6a5.235 5.235 0 0 0-6.55-.72L2.732 6.587a2.482 2.482 0 0 0-.45 3.866L7.823 16a2.482 2.482 0 0 0 3.872-.456l2.854-4.656a5.273 5.273 0 0 0-.876-6.291zm.972 13.647a.76.76 0 0 1-.449-1.374 6.562 6.562 0 0 0 2.52-4.11.76.76 0 1 1 1.485.327 8.134 8.134 0 0 1-3.108 5.01.76.76 0 0 1-.447.144zM.761 4.362a.76.76 0 0 1-.608-1.211A8.128 8.128 0 0 1 5.256.015a.76.76 0 1 1 .3 1.49 6.565 6.565 0 0 0-4.191 2.55.76.76 0 0 1-.604.307z" transform="translate(-.004)"/>
</svg>
