<svg xmlns="http://www.w3.org/2000/svg" width="16" height="16" viewBox="0 0 16 16">
    <path fill="#fff" d="M7.969 12.342H2.5a2.5 2.5 0 0 1-2.5-2.5V6.155a2.5 2.5 0 0 1 2.5-2.5h5.469a.625.625 0 0 1 0 1.25H2.5a1.251 1.251 0 0 0-1.25 1.25v3.687a1.251 1.251 0 0 0 1.25 1.25h5.469a.625.625 0 0 1 0 1.25zM13.5 3.655h-.562a.625.625 0 0 0 0 1.25h.562a1.251 1.251 0 0 1 1.25 1.25v3.687a1.251 1.251 0 0 1-1.25 1.25h-.562a.625.625 0 1 0 0 1.25h.562a2.5 2.5 0 0 0 2.5-2.5V6.155a2.5 2.5 0 0 0-2.5-2.5zm-.562 11.1a1.877 1.877 0 0 1-1.875-1.875V3.125a1.877 1.877 0 0 1 1.875-1.875.625.625 0 0 0 0-1.25 3.122 3.122 0 0 0-2.5 1.252A3.122 3.122 0 0 0 7.937 0a.625.625 0 0 0 0 1.25 1.877 1.877 0 0 1 1.876 1.875v9.75a1.877 1.877 0 0 1-1.876 1.875.625.625 0 0 0 0 1.25 3.122 3.122 0 0 0 2.5-1.252A3.122 3.122 0 0 0 12.938 16a.625.625 0 0 0 0-1.25z"/>
</svg>
